<svg width="179" height="74" viewBox="0 0 179 74" fill="none" xmlns="http://www.w3.org/2000/svg">
<path d="M20 32.9438V55.3265C20 56.2236 20.2896 57.0966 20.8254 57.8143C21.1306 58.2232 21.5083 58.5718 21.9396 58.8426L21.9632 58.8575C22.6429 59.2842 23.4282 59.5105 24.2296 59.5105H28.1363C29.1076 59.5105 30.039 59.1229 30.7258 58.4329C31.9978 57.2969 33.0096 55.8974 33.6918 54.3309L40.1645 39.4661L34.538 55.5881C34.4285 55.9018 34.3726 56.2326 34.3726 56.5651C34.3726 57.3457 34.6812 58.0964 35.2306 58.6484C35.78 59.2004 36.5252 59.5105 37.3022 59.5105H48.2161C49.3552 59.5105 50.4237 58.9556 51.0824 58.0219L62.0451 42.4836L63.1222 40.9685C63.8279 39.9758 64.3414 38.8585 64.6359 37.675C64.7676 37.1458 64.8547 36.6064 64.8963 36.0625L64.9985 34.7284C65.0316 34.2955 65.0286 33.8605 64.9895 33.4281L64.966 33.1681C64.8789 32.2058 64.5826 31.2744 64.098 30.4398C63.5941 29.5718 62.8996 28.8309 62.0675 28.2735L62.0451 28.2585C61.0563 27.6909 59.9545 27.3509 58.8191 27.2631L58.5126 27.2395C58.0083 27.2005 57.5016 27.204 56.9978 27.25L56.2203 27.321C55.672 27.3711 55.1313 27.4848 54.609 27.6597C53.437 28.0522 52.3864 28.7435 51.56 29.6661L50.8903 30.4138C49.7515 31.844 48.8124 33.4237 48.099 35.1091L41.2371 51.3203L44.8838 37.7419L45.5522 35.2236C45.6784 34.7482 45.7594 34.2619 45.7943 33.7712L45.8714 32.6873C45.9269 31.9065 45.7581 31.1262 45.385 30.4391C44.923 29.5879 44.1748 28.9296 43.2742 28.5816L42.5757 28.3116C42.114 28.1332 41.6324 28.0118 41.1416 27.9502L40.1645 27.8275H38.7787C38.5588 27.8275 38.339 27.8432 38.1213 27.8744C36.4669 28.1119 35.0666 29.2233 34.4537 30.7854L26.65 50.6738L30.8658 34.3359C31.7722 30.8232 29.133 27.3964 25.5212 27.3964C22.4719 27.3964 20 29.88 20 32.9438Z" fill="#A6D35C"/>
<path d="M73.9929 30.1489H72.6879C69.8051 30.1489 67.4681 32.4518 67.4681 35.2926V54.367C67.4681 57.2077 69.8051 59.5106 72.6879 59.5106H79.2128V35.2926C79.2128 32.4518 76.8757 30.1489 73.9929 30.1489Z" fill="#A6D35C"/>
<path d="M152.998 30.1489H151.747C148.984 30.1489 146.745 32.4518 146.745 35.2926V54.367C146.745 57.2077 148.984 59.5106 151.747 59.5106H158V35.2926C158 32.4518 155.76 30.1489 152.998 30.1489Z" fill="#A6D35C"/>
<path d="M83.617 59.5107V21.1067C83.617 18.2629 85.9745 15.9575 88.8825 15.9575H90.2505C93.1383 15.9575 95.4873 18.2321 95.5158 21.0559L95.8508 54.3108C95.8796 57.1743 93.5139 59.5107 90.5856 59.5107H83.617Z" fill="#A6D35C"/>
<path d="M107.854 15.9575H106.359C103.529 15.9575 101.234 18.2629 101.234 21.1067V59.5107H107.854C110.684 59.5107 112.979 57.2054 112.979 54.3616V21.1067C112.979 18.2629 110.684 15.9575 107.854 15.9575Z" fill="#A6D35C"/>
<path d="M130.854 15.9575H129.359C126.529 15.9575 124.234 18.2629 124.234 21.1067V59.5107H130.854C133.684 59.5107 135.979 57.2054 135.979 54.3616V21.1067C135.979 18.2629 133.684 15.9575 130.854 15.9575Z" fill="#A6D35C"/>
<path d="M67.4681 21.8299C67.4681 18.5867 70.0972 15.9575 73.3404 15.9575C76.5836 15.9575 79.2128 18.5867 79.2128 21.8299V26.4438C79.2128 27.1388 78.6494 27.7022 77.9544 27.7022H73.3404C70.0972 27.7022 67.4681 25.0731 67.4681 21.8299Z" fill="#A6D35C"/>
<path fill-rule="evenodd" clip-rule="evenodd" d="M78.7778 26.4438V21.8299C78.7778 18.8269 76.3434 16.3925 73.3404 16.3925C70.3375 16.3925 67.9031 18.8269 67.9031 21.8299C67.9031 24.8328 70.3375 27.2672 73.3404 27.2672H77.9544C78.4091 27.2672 78.7778 26.8986 78.7778 26.4438ZM73.3404 15.9575C70.0972 15.9575 67.4681 18.5867 67.4681 21.8299C67.4681 25.0731 70.0972 27.7022 73.3404 27.7022H77.9544C78.6494 27.7022 79.2128 27.1388 79.2128 26.4438V21.8299C79.2128 18.5867 76.5836 15.9575 73.3404 15.9575Z" fill="#A6D35C"/>
<path d="M115.915 21.3404C115.915 18.0972 118.544 15.468 121.787 15.468H132.833C138.624 15.468 143.319 20.1629 143.319 25.9543C143.319 26.6493 142.756 27.2127 142.061 27.2127H121.787C118.544 27.2127 115.915 24.5836 115.915 21.3404Z" fill="#A6D35C"/>
<path fill-rule="evenodd" clip-rule="evenodd" d="M132.833 15.903H121.787C118.784 15.903 116.35 18.3374 116.35 21.3404C116.35 24.3433 118.784 26.7777 121.787 26.7777H142.061C142.516 26.7777 142.884 26.4091 142.884 25.9543C142.884 20.4031 138.384 15.903 132.833 15.903ZM121.787 15.468C118.544 15.468 115.915 18.0972 115.915 21.3404C115.915 24.5836 118.544 27.2127 121.787 27.2127H142.061C142.756 27.2127 143.319 26.6493 143.319 25.9543C143.319 20.1629 138.624 15.468 132.833 15.468H121.787Z" fill="#A6D35C"/>
<path d="M146.745 19.6277C146.745 16.5196 149.264 14 152.372 14C155.48 14 158 16.5196 158 19.6277V24.0494C158 24.7154 157.46 25.2553 156.794 25.2553H152.372C149.264 25.2553 146.745 22.7357 146.745 19.6277Z" fill="#A6D35C"/>
<path fill-rule="evenodd" clip-rule="evenodd" d="M157.583 24.0494V19.6277C157.583 16.7498 155.25 14.4169 152.372 14.4169C149.495 14.4169 147.162 16.7498 147.162 19.6277C147.162 22.5055 149.495 24.8385 152.372 24.8385H156.794C157.23 24.8385 157.583 24.4852 157.583 24.0494ZM152.372 14C149.264 14 146.745 16.5196 146.745 19.6277C146.745 22.7357 149.264 25.2553 152.372 25.2553H156.794C157.46 25.2553 158 24.7154 158 24.0494V19.6277C158 16.5196 155.48 14 152.372 14Z" fill="#A6D35C"/>
</svg>
