<svg width="105" height="106" viewBox="0 0 105 106" fill="none" xmlns="http://www.w3.org/2000/svg">
<g clip-path="url(#clip0_2_76)">
<path d="M0 44.3691V96.2937C0 98.375 0.675049 100.4 1.92382 102.065C2.63514 103.014 3.51566 103.822 4.52099 104.451L4.576 104.485C6.16007 105.475 7.99048 106 9.85849 106H18.9645C21.2282 106 23.3993 105.101 25 103.5C27.9648 100.865 30.3233 97.6182 31.9132 93.984L47 59.5L33.8855 96.9005C33.6303 97.6283 33.5 98.3958 33.5 99.1671C33.5 100.978 34.2194 102.719 35.5 104C36.7806 105.281 38.5174 106 40.3284 106H65.7671C68.4222 106 70.9125 104.713 72.4479 102.547L98 66.5L100.511 62.9853C102.155 60.6824 103.352 58.0905 104.039 55.3449C104.346 54.1172 104.549 52.8658 104.646 51.604L104.884 48.5092C104.961 47.5048 104.954 46.4958 104.863 45.4927L104.808 44.8895C104.605 42.6571 103.915 40.4965 102.785 38.5602C101.611 36.5467 99.9918 34.8279 98.0522 33.5349L98 33.5C95.6954 32.1832 93.1272 31.3944 90.4807 31.1909L89.7664 31.1359C88.5909 31.0455 87.4098 31.0537 86.2356 31.1604L84.4234 31.3252C83.1454 31.4414 81.8852 31.705 80.6678 32.1108C77.9361 33.0214 75.4874 34.6252 73.5611 36.7655L72 38.5C69.3458 41.8178 67.1569 45.4825 65.494 49.3924L49.5 87L58 55.5L59.5579 49.658C59.852 48.5552 60.0409 47.427 60.1222 46.2885L60.3019 43.7741C60.4312 41.9629 60.0378 40.1526 59.1683 38.5585C58.0913 36.5841 56.3475 35.0568 54.2483 34.2494L52.6203 33.6232C51.5441 33.2093 50.4216 32.9277 49.2774 32.7847L47 32.5H43.7701C43.2573 32.5 42.7452 32.5364 42.2376 32.609C38.3815 33.1598 35.1177 35.7381 33.6891 39.3619L15.5 85.5L25.3263 47.5987C27.439 39.4497 21.2875 31.5 12.8691 31.5C5.76167 31.5 0 37.2617 0 44.3691Z" fill="#A6D35C"/>
<path d="M0 13.5C0 6.04416 6.04416 0 13.5 0C20.9558 0 27 6.04416 27 13.5V24.1071C27 25.7048 25.7048 27 24.1071 27H13.5C6.04416 27 0 20.9558 0 13.5Z" fill="#A6D35C"/>
</g>
<defs>
<clipPath id="clip0_2_76">
<rect width="105" height="106" fill="white"/>
</clipPath>
</defs>
</svg>
