<svg width="13" height="13" viewBox="0 0 13 13" fill="none" xmlns="http://www.w3.org/2000/svg">
<rect width="13" height="13" rx="6.5" fill="#071307"/>
<path d="M6.44234 3.852C6.97034 3.852 7.39701 4.00133 7.72234 4.3C8.04768 4.59867 8.21034 4.99867 8.21034 5.5C8.21034 6.06 8.03701 6.476 7.69034 6.748C7.34368 7.01467 6.87434 7.148 6.28234 7.148L6.25834 7.908H5.62634L5.59434 6.644H5.82634C6.35434 6.644 6.76768 6.564 7.06634 6.404C7.36501 6.244 7.51434 5.94267 7.51434 5.5C7.51434 5.18 7.41834 4.92667 7.22634 4.74C7.03434 4.55333 6.77568 4.46 6.45034 4.46C6.11968 4.46 5.85834 4.55067 5.66634 4.732C5.47968 4.908 5.38634 5.15067 5.38634 5.46H4.69834C4.69834 5.14 4.77034 4.86 4.91434 4.62C5.05834 4.37467 5.26101 4.18533 5.52234 4.052C5.78901 3.91867 6.09568 3.852 6.44234 3.852ZM5.93834 9.548C5.79968 9.548 5.68234 9.5 5.58634 9.404C5.49034 9.308 5.44234 9.19067 5.44234 9.052C5.44234 8.91333 5.49034 8.796 5.58634 8.7C5.68234 8.604 5.79968 8.556 5.93834 8.556C6.07168 8.556 6.18368 8.604 6.27434 8.7C6.37034 8.796 6.41834 8.91333 6.41834 9.052C6.41834 9.19067 6.37034 9.308 6.27434 9.404C6.18368 9.5 6.07168 9.548 5.93834 9.548Z" fill="white"/>
</svg>
