<svg width="79" height="26" viewBox="0 0 79 26" fill="none" xmlns="http://www.w3.org/2000/svg">
<rect width="79" height="26" rx="6" fill="#F6F6F6"/>
<path fill-rule="evenodd" clip-rule="evenodd" d="M12.7362 7.78459L13.9544 10.2184C14.0738 10.4574 14.3043 10.623 14.5716 10.6614L17.2969 11.0537C17.9702 11.1509 18.2382 11.9669 17.7509 12.4345L15.7801 14.3282C15.5864 14.5144 15.4983 14.7821 15.5441 15.045L16.0092 17.7185C16.1237 18.3798 15.4198 18.8844 14.818 18.5715L12.3821 17.3084C12.1433 17.1845 11.8573 17.1845 11.6179 17.3084L9.182 18.5715C8.58015 18.8844 7.87626 18.3798 7.9915 17.7185L8.4559 15.045C8.50171 14.7821 8.41355 14.5144 8.21988 14.3282L6.24912 12.4345C5.76181 11.9669 6.02976 11.1509 6.70311 11.0537L9.42843 10.6614C9.69569 10.623 9.92685 10.4574 10.0462 10.2184L11.2638 7.78459C11.5651 7.18281 12.4349 7.18281 12.7362 7.78459Z" fill="#FFAC0C" stroke="#FFAC0C" stroke-width="1.5" stroke-linecap="round" stroke-linejoin="round"/>
<path fill-rule="evenodd" clip-rule="evenodd" d="M29.7362 7.78459L30.9544 10.2184C31.0738 10.4574 31.3043 10.623 31.5716 10.6614L34.2969 11.0537C34.9702 11.1509 35.2382 11.9669 34.7509 12.4345L32.7801 14.3282C32.5864 14.5144 32.4983 14.7821 32.5441 15.045L33.0092 17.7185C33.1237 18.3798 32.4198 18.8844 31.818 18.5715L29.3821 17.3084C29.1433 17.1845 28.8573 17.1845 28.6179 17.3084L26.182 18.5715C25.5802 18.8844 24.8763 18.3798 24.9915 17.7185L25.4559 15.045C25.5017 14.7821 25.4136 14.5144 25.2199 14.3282L23.2491 12.4345C22.7618 11.9669 23.0298 11.1509 23.7031 11.0537L26.4284 10.6614C26.6957 10.623 26.9269 10.4574 27.0462 10.2184L28.2638 7.78459C28.5651 7.18281 29.4349 7.18281 29.7362 7.78459Z" fill="#FFAC0C" stroke="#FFAC0C" stroke-width="1.5" stroke-linecap="round" stroke-linejoin="round"/>
<path fill-rule="evenodd" clip-rule="evenodd" d="M46.7362 7.78459L47.9544 10.2184C48.0738 10.4574 48.3043 10.623 48.5716 10.6614L51.2969 11.0537C51.9702 11.1509 52.2382 11.9669 51.7509 12.4345L49.7801 14.3282C49.5864 14.5144 49.4983 14.7821 49.5441 15.045L50.0092 17.7185C50.1237 18.3798 49.4198 18.8844 48.818 18.5715L46.3821 17.3084C46.1433 17.1845 45.8573 17.1845 45.6179 17.3084L43.182 18.5715C42.5802 18.8844 41.8763 18.3798 41.9915 17.7185L42.4559 15.045C42.5017 14.7821 42.4136 14.5144 42.2199 14.3282L40.2491 12.4345C39.7618 11.9669 40.0298 11.1509 40.7031 11.0537L43.4284 10.6614C43.6957 10.623 43.9269 10.4574 44.0462 10.2184L45.2638 7.78459C45.5651 7.18281 46.4349 7.18281 46.7362 7.78459Z" fill="#FFAC0C" stroke="#FFAC0C" stroke-width="1.5" stroke-linecap="round" stroke-linejoin="round"/>
<path d="M63.652 8.576L60.664 17H58.096L55.108 8.576H57.292L59.38 14.936L61.48 8.576H63.652ZM66.5616 8.576V17H64.5096V8.576H66.5616ZM74.4687 11.288C74.4687 11.776 74.3567 12.224 74.1327 12.632C73.9087 13.032 73.5647 13.356 73.1007 13.604C72.6367 13.852 72.0607 13.976 71.3727 13.976H70.1007V17H68.0487V8.576H71.3727C72.0447 8.576 72.6127 8.692 73.0767 8.924C73.5407 9.156 73.8887 9.476 74.1207 9.884C74.3527 10.292 74.4687 10.76 74.4687 11.288ZM71.2167 12.344C71.6087 12.344 71.9007 12.252 72.0927 12.068C72.2847 11.884 72.3807 11.624 72.3807 11.288C72.3807 10.952 72.2847 10.692 72.0927 10.508C71.9007 10.324 71.6087 10.232 71.2167 10.232H70.1007V12.344H71.2167Z" fill="black"/>
</svg>
